<!DOCTYPE svg PUBLIC "-//W3C//DTD SVG 1.1//EN" "http://www.w3.org/Graphics/SVG/1.1/DTD/svg11.dtd">
<!-- Uploaded to: SVG Repo, www.svgrepo.com, Transformed by: SVG Repo Mixer Tools -->
<svg fill="#3c096c" width="800px" height="800px" viewBox="0 0 24 24" xmlns="http://www.w3.org/2000/svg" data-name="Layer 1">
<g id="SVGRepo_bgCarrier" stroke-width="0"/>
<g id="SVGRepo_tracerCarrier" stroke-linecap="round" stroke-linejoin="round"/>
<g id="SVGRepo_iconCarrier">
<path d="M9.21,10.54a1,1,0,0,0,1.41,0,1,1,0,0,0,0-1.41,3.08,3.08,0,0,0-4.24,0,1,1,0,1,0,1.41,1.41A1,1,0,0,1,9.21,10.54ZM15,14H9a1,1,0,0,0,0,2h6a1,1,0,0,0,0-2Zm2.62-4.87a3.08,3.08,0,0,0-4.24,0,1,1,0,0,0,1.41,1.41,1,1,0,0,1,1.42,0,1,1,0,0,0,1.41,0A1,1,0,0,0,17.62,9.13ZM12,2A10,10,0,1,0,22,12,10,10,0,0,0,12,2Zm0,18a8,8,0,1,1,8-8A8,8,0,0,1,12,20Z"/>
</g>
</svg>